<mxfile host="app.diagrams.net" modified="2024-06-29T11:11:50.327Z" agent="Mozilla/5.0 (X11; Linux x86_64) AppleWebKit/537.36 (KHTML, like Gecko) Chrome/123.0.0.0 Safari/537.36" etag="zHPzYXnwczp63rrEtKyF" version="24.6.4" type="device">
  <diagram name="Page-1" id="mlHsalZhluXgioZ-K4go">
    <mxGraphModel dx="1183" dy="677" grid="1" gridSize="10" guides="1" tooltips="1" connect="1" arrows="1" fold="1" page="1" pageScale="1" pageWidth="850" pageHeight="1100" math="0" shadow="0">
      <root>
        <mxCell id="0" />
        <mxCell id="1" parent="0" />
        <mxCell id="JbYDvvjTxCGBYsaSV6ub-1" value="Maximum&lt;div&gt;Attendance&lt;/div&gt;" style="shape=parallelogram;perimeter=parallelogramPerimeter;whiteSpace=wrap;html=1;fixedSize=1;" vertex="1" parent="1">
          <mxGeometry x="390" y="20" width="120" height="60" as="geometry" />
        </mxCell>
        <mxCell id="JbYDvvjTxCGBYsaSV6ub-2" value="Convenient meeting&lt;div&gt;scheduled from request&lt;/div&gt;" style="shape=parallelogram;perimeter=parallelogramPerimeter;whiteSpace=wrap;html=1;fixedSize=1;" vertex="1" parent="1">
          <mxGeometry x="155" y="160" width="170" height="60" as="geometry" />
        </mxCell>
        <mxCell id="JbYDvvjTxCGBYsaSV6ub-3" value="Appropriate&lt;div&gt;band width&lt;/div&gt;" style="shape=parallelogram;perimeter=parallelogramPerimeter;whiteSpace=wrap;html=1;fixedSize=1;" vertex="1" parent="1">
          <mxGeometry x="375" y="160" width="120" height="60" as="geometry" />
        </mxCell>
        <mxCell id="JbYDvvjTxCGBYsaSV6ub-5" value="Attendance if&lt;div&gt;informed And meeting convenient&lt;/div&gt;" style="shape=parallelogram;perimeter=parallelogramPerimeter;whiteSpace=wrap;html=1;fixedSize=1;" vertex="1" parent="1">
          <mxGeometry x="545" y="160" width="160" height="60" as="geometry" />
        </mxCell>
        <mxCell id="JbYDvvjTxCGBYsaSV6ub-8" style="edgeStyle=orthogonalEdgeStyle;rounded=0;orthogonalLoop=1;jettySize=auto;html=1;exitX=0;exitY=0.5;exitDx=0;exitDy=0;endArrow=none;endFill=0;" edge="1" parent="1" source="JbYDvvjTxCGBYsaSV6ub-7" target="JbYDvvjTxCGBYsaSV6ub-2">
          <mxGeometry relative="1" as="geometry" />
        </mxCell>
        <mxCell id="JbYDvvjTxCGBYsaSV6ub-11" style="edgeStyle=orthogonalEdgeStyle;rounded=0;orthogonalLoop=1;jettySize=auto;html=1;exitX=0.5;exitY=0;exitDx=0;exitDy=0;endArrow=classic;endFill=1;" edge="1" parent="1" source="JbYDvvjTxCGBYsaSV6ub-7">
          <mxGeometry relative="1" as="geometry">
            <mxPoint x="441" y="80.00000000000006" as="targetPoint" />
          </mxGeometry>
        </mxCell>
        <mxCell id="JbYDvvjTxCGBYsaSV6ub-7" value="" style="ellipse;whiteSpace=wrap;html=1;aspect=fixed;" vertex="1" parent="1">
          <mxGeometry x="436" y="111" width="10" height="10" as="geometry" />
        </mxCell>
        <mxCell id="JbYDvvjTxCGBYsaSV6ub-9" style="edgeStyle=orthogonalEdgeStyle;rounded=0;orthogonalLoop=1;jettySize=auto;html=1;entryX=0.554;entryY=0;entryDx=0;entryDy=0;entryPerimeter=0;endArrow=none;endFill=0;" edge="1" parent="1" source="JbYDvvjTxCGBYsaSV6ub-7" target="JbYDvvjTxCGBYsaSV6ub-3">
          <mxGeometry relative="1" as="geometry" />
        </mxCell>
        <mxCell id="JbYDvvjTxCGBYsaSV6ub-10" style="edgeStyle=orthogonalEdgeStyle;rounded=0;orthogonalLoop=1;jettySize=auto;html=1;exitX=1;exitY=1;exitDx=0;exitDy=0;entryX=0.686;entryY=-0.029;entryDx=0;entryDy=0;entryPerimeter=0;endArrow=none;endFill=0;" edge="1" parent="1" source="JbYDvvjTxCGBYsaSV6ub-7" target="JbYDvvjTxCGBYsaSV6ub-5">
          <mxGeometry relative="1" as="geometry" />
        </mxCell>
        <mxCell id="JbYDvvjTxCGBYsaSV6ub-12" value="Down time&lt;div&gt;between stream&lt;/div&gt;" style="shape=parallelogram;perimeter=parallelogramPerimeter;whiteSpace=wrap;html=1;fixedSize=1;flipH=1;" vertex="1" parent="1">
          <mxGeometry x="366" y="270" width="120" height="60" as="geometry" />
        </mxCell>
        <mxCell id="JbYDvvjTxCGBYsaSV6ub-13" style="edgeStyle=orthogonalEdgeStyle;rounded=0;orthogonalLoop=1;jettySize=auto;html=1;entryX=0.43;entryY=1.01;entryDx=0;entryDy=0;entryPerimeter=0;" edge="1" parent="1" source="JbYDvvjTxCGBYsaSV6ub-12" target="JbYDvvjTxCGBYsaSV6ub-3">
          <mxGeometry relative="1" as="geometry" />
        </mxCell>
        <mxCell id="JbYDvvjTxCGBYsaSV6ub-14" value="" style="endArrow=none;html=1;rounded=0;strokeWidth=2;" edge="1" parent="1">
          <mxGeometry width="50" height="50" relative="1" as="geometry">
            <mxPoint x="417" y="240" as="sourcePoint" />
            <mxPoint x="437" y="240" as="targetPoint" />
          </mxGeometry>
        </mxCell>
        <mxCell id="JbYDvvjTxCGBYsaSV6ub-16" style="edgeStyle=orthogonalEdgeStyle;rounded=0;orthogonalLoop=1;jettySize=auto;html=1;entryX=0.5;entryY=1;entryDx=0;entryDy=0;" edge="1" parent="1" source="JbYDvvjTxCGBYsaSV6ub-15" target="JbYDvvjTxCGBYsaSV6ub-5">
          <mxGeometry relative="1" as="geometry" />
        </mxCell>
        <mxCell id="JbYDvvjTxCGBYsaSV6ub-15" value="Informed And Convenient And Not Attend" style="shape=parallelogram;perimeter=parallelogramPerimeter;whiteSpace=wrap;html=1;fixedSize=1;flipH=1;" vertex="1" parent="1">
          <mxGeometry x="515" y="270" width="220" height="40" as="geometry" />
        </mxCell>
        <mxCell id="JbYDvvjTxCGBYsaSV6ub-17" value="" style="endArrow=none;html=1;rounded=0;strokeWidth=2;" edge="1" parent="1">
          <mxGeometry width="50" height="50" relative="1" as="geometry">
            <mxPoint x="616" y="241" as="sourcePoint" />
            <mxPoint x="636" y="241" as="targetPoint" />
          </mxGeometry>
        </mxCell>
        <mxCell id="JbYDvvjTxCGBYsaSV6ub-20" value="" style="edgeStyle=orthogonalEdgeStyle;rounded=0;orthogonalLoop=1;jettySize=auto;html=1;" edge="1" parent="1" source="JbYDvvjTxCGBYsaSV6ub-18" target="JbYDvvjTxCGBYsaSV6ub-15">
          <mxGeometry relative="1" as="geometry">
            <Array as="points">
              <mxPoint x="540" y="340" />
              <mxPoint x="565" y="340" />
            </Array>
          </mxGeometry>
        </mxCell>
        <mxCell id="JbYDvvjTxCGBYsaSV6ub-18" value="Meeting forgotten" style="shape=parallelogram;perimeter=parallelogramPerimeter;whiteSpace=wrap;html=1;fixedSize=1;flipH=1;" vertex="1" parent="1">
          <mxGeometry x="495" y="370" width="90" height="40" as="geometry" />
        </mxCell>
        <mxCell id="JbYDvvjTxCGBYsaSV6ub-22" value="" style="edgeStyle=orthogonalEdgeStyle;rounded=0;orthogonalLoop=1;jettySize=auto;html=1;" edge="1" parent="1" source="JbYDvvjTxCGBYsaSV6ub-21" target="JbYDvvjTxCGBYsaSV6ub-15">
          <mxGeometry relative="1" as="geometry" />
        </mxCell>
        <mxCell id="JbYDvvjTxCGBYsaSV6ub-21" value="No longer&lt;div&gt;convenient&lt;/div&gt;" style="shape=parallelogram;perimeter=parallelogramPerimeter;whiteSpace=wrap;html=1;fixedSize=1;flipH=1;" vertex="1" parent="1">
          <mxGeometry x="580" y="370" width="90" height="40" as="geometry" />
        </mxCell>
        <mxCell id="JbYDvvjTxCGBYsaSV6ub-24" value="" style="edgeStyle=orthogonalEdgeStyle;rounded=0;orthogonalLoop=1;jettySize=auto;html=1;" edge="1" parent="1" source="JbYDvvjTxCGBYsaSV6ub-23" target="JbYDvvjTxCGBYsaSV6ub-15">
          <mxGeometry relative="1" as="geometry">
            <Array as="points">
              <mxPoint x="715" y="340" />
              <mxPoint x="655" y="340" />
            </Array>
          </mxGeometry>
        </mxCell>
        <mxCell id="JbYDvvjTxCGBYsaSV6ub-23" value="Schedule&lt;div&gt;Confused&lt;/div&gt;" style="shape=parallelogram;perimeter=parallelogramPerimeter;whiteSpace=wrap;html=1;fixedSize=1;flipH=1;" vertex="1" parent="1">
          <mxGeometry x="670" y="370" width="90" height="40" as="geometry" />
        </mxCell>
        <mxCell id="JbYDvvjTxCGBYsaSV6ub-25" value="" style="ellipse;whiteSpace=wrap;html=1;aspect=fixed;fillColor=#D4E1F5;" vertex="1" parent="1">
          <mxGeometry x="548" y="335" width="10" height="10" as="geometry" />
        </mxCell>
        <mxCell id="JbYDvvjTxCGBYsaSV6ub-38" style="edgeStyle=orthogonalEdgeStyle;rounded=0;orthogonalLoop=1;jettySize=auto;html=1;entryX=0.5;entryY=1;entryDx=0;entryDy=0;" edge="1" parent="1" source="JbYDvvjTxCGBYsaSV6ub-26" target="JbYDvvjTxCGBYsaSV6ub-23">
          <mxGeometry relative="1" as="geometry" />
        </mxCell>
        <mxCell id="JbYDvvjTxCGBYsaSV6ub-26" value="" style="ellipse;whiteSpace=wrap;html=1;aspect=fixed;fillColor=#D4E1F5;" vertex="1" parent="1">
          <mxGeometry x="710" y="430" width="10" height="10" as="geometry" />
        </mxCell>
        <mxCell id="JbYDvvjTxCGBYsaSV6ub-27" value="" style="ellipse;whiteSpace=wrap;html=1;aspect=fixed;fillColor=#D4E1F5;" vertex="1" parent="1">
          <mxGeometry x="620" y="340" width="10" height="10" as="geometry" />
        </mxCell>
        <mxCell id="JbYDvvjTxCGBYsaSV6ub-37" style="edgeStyle=orthogonalEdgeStyle;rounded=0;orthogonalLoop=1;jettySize=auto;html=1;entryX=0.5;entryY=1;entryDx=0;entryDy=0;endArrow=none;endFill=0;" edge="1" parent="1" source="JbYDvvjTxCGBYsaSV6ub-32" target="JbYDvvjTxCGBYsaSV6ub-26">
          <mxGeometry relative="1" as="geometry">
            <Array as="points">
              <mxPoint x="650" y="460" />
              <mxPoint x="715" y="460" />
            </Array>
          </mxGeometry>
        </mxCell>
        <mxCell id="JbYDvvjTxCGBYsaSV6ub-32" value="Wrong&lt;div&gt;Date&lt;/div&gt;" style="shape=parallelogram;perimeter=parallelogramPerimeter;whiteSpace=wrap;html=1;fixedSize=1;flipH=1;" vertex="1" parent="1">
          <mxGeometry x="605" y="480" width="90" height="40" as="geometry" />
        </mxCell>
        <mxCell id="JbYDvvjTxCGBYsaSV6ub-35" value="" style="edgeStyle=orthogonalEdgeStyle;rounded=0;orthogonalLoop=1;jettySize=auto;html=1;endArrow=none;endFill=0;" edge="1" parent="1" source="JbYDvvjTxCGBYsaSV6ub-33" target="JbYDvvjTxCGBYsaSV6ub-26">
          <mxGeometry relative="1" as="geometry" />
        </mxCell>
        <mxCell id="JbYDvvjTxCGBYsaSV6ub-33" value="Location (uri)&lt;div&gt;Confused&lt;/div&gt;" style="shape=parallelogram;perimeter=parallelogramPerimeter;whiteSpace=wrap;html=1;fixedSize=1;flipH=1;" vertex="1" parent="1">
          <mxGeometry x="705" y="480" width="90" height="40" as="geometry" />
        </mxCell>
        <mxCell id="JbYDvvjTxCGBYsaSV6ub-39" value="" style="ellipse;whiteSpace=wrap;html=1;aspect=fixed;fillColor=default;" vertex="1" parent="1">
          <mxGeometry x="672" y="335" width="10" height="10" as="geometry" />
        </mxCell>
        <mxCell id="JbYDvvjTxCGBYsaSV6ub-41" value="Constraints known from request" style="shape=parallelogram;perimeter=parallelogramPerimeter;whiteSpace=wrap;html=1;fixedSize=1;" vertex="1" parent="1">
          <mxGeometry x="155" y="270" width="170" height="60" as="geometry" />
        </mxCell>
        <mxCell id="JbYDvvjTxCGBYsaSV6ub-42" style="edgeStyle=orthogonalEdgeStyle;rounded=0;orthogonalLoop=1;jettySize=auto;html=1;entryX=0.504;entryY=1.06;entryDx=0;entryDy=0;entryPerimeter=0;" edge="1" parent="1" source="JbYDvvjTxCGBYsaSV6ub-41" target="JbYDvvjTxCGBYsaSV6ub-2">
          <mxGeometry relative="1" as="geometry" />
        </mxCell>
        <mxCell id="JbYDvvjTxCGBYsaSV6ub-43" value="" style="ellipse;whiteSpace=wrap;html=1;aspect=fixed;" vertex="1" parent="1">
          <mxGeometry x="235" y="243" width="10" height="10" as="geometry" />
        </mxCell>
        <mxCell id="JbYDvvjTxCGBYsaSV6ub-58" value="" style="edgeStyle=orthogonalEdgeStyle;rounded=0;orthogonalLoop=1;jettySize=auto;html=1;" edge="1" parent="1" source="JbYDvvjTxCGBYsaSV6ub-48" target="JbYDvvjTxCGBYsaSV6ub-41">
          <mxGeometry relative="1" as="geometry" />
        </mxCell>
        <mxCell id="JbYDvvjTxCGBYsaSV6ub-48" value="Constraints&lt;div&gt;requested&lt;/div&gt;" style="shape=parallelogram;perimeter=parallelogramPerimeter;whiteSpace=wrap;html=1;fixedSize=1;flipH=1;flipV=1;" vertex="1" parent="1">
          <mxGeometry x="130" y="390" width="90" height="40" as="geometry" />
        </mxCell>
        <mxCell id="JbYDvvjTxCGBYsaSV6ub-59" value="" style="edgeStyle=orthogonalEdgeStyle;rounded=0;orthogonalLoop=1;jettySize=auto;html=1;" edge="1" parent="1" source="JbYDvvjTxCGBYsaSV6ub-50" target="JbYDvvjTxCGBYsaSV6ub-41">
          <mxGeometry relative="1" as="geometry" />
        </mxCell>
        <mxCell id="JbYDvvjTxCGBYsaSV6ub-50" value="Constraints&lt;div&gt;transmitted&lt;/div&gt;" style="shape=parallelogram;perimeter=parallelogramPerimeter;whiteSpace=wrap;html=1;fixedSize=1;flipH=1;flipV=1;" vertex="1" parent="1">
          <mxGeometry x="220" y="390" width="90" height="40" as="geometry" />
        </mxCell>
        <mxCell id="JbYDvvjTxCGBYsaSV6ub-60" style="edgeStyle=orthogonalEdgeStyle;rounded=0;orthogonalLoop=1;jettySize=auto;html=1;endArrow=none;endFill=0;" edge="1" parent="1" source="JbYDvvjTxCGBYsaSV6ub-51">
          <mxGeometry relative="1" as="geometry">
            <mxPoint x="240" y="360" as="targetPoint" />
            <Array as="points">
              <mxPoint x="370" y="360" />
            </Array>
          </mxGeometry>
        </mxCell>
        <mxCell id="JbYDvvjTxCGBYsaSV6ub-51" value="Communication&lt;div&gt;Working&lt;/div&gt;" style="shape=parallelogram;perimeter=parallelogramPerimeter;whiteSpace=wrap;html=1;fixedSize=1;flipH=1;flipV=1;" vertex="1" parent="1">
          <mxGeometry x="310" y="390" width="120" height="40" as="geometry" />
        </mxCell>
        <mxCell id="JbYDvvjTxCGBYsaSV6ub-55" style="edgeStyle=orthogonalEdgeStyle;rounded=0;orthogonalLoop=1;jettySize=auto;html=1;entryX=0.5;entryY=1;entryDx=0;entryDy=0;" edge="1" parent="1" source="JbYDvvjTxCGBYsaSV6ub-54" target="JbYDvvjTxCGBYsaSV6ub-51">
          <mxGeometry relative="1" as="geometry" />
        </mxCell>
        <mxCell id="JbYDvvjTxCGBYsaSV6ub-54" value="Communication&lt;div&gt;Not Working&lt;/div&gt;" style="shape=parallelogram;perimeter=parallelogramPerimeter;whiteSpace=wrap;html=1;fixedSize=1;flipH=0;flipV=1;" vertex="1" parent="1">
          <mxGeometry x="310" y="470" width="120" height="40" as="geometry" />
        </mxCell>
        <mxCell id="JbYDvvjTxCGBYsaSV6ub-56" value="" style="endArrow=none;html=1;rounded=0;strokeWidth=2;" edge="1" parent="1">
          <mxGeometry width="50" height="50" relative="1" as="geometry">
            <mxPoint x="360" y="451" as="sourcePoint" />
            <mxPoint x="380" y="451" as="targetPoint" />
          </mxGeometry>
        </mxCell>
        <mxCell id="JbYDvvjTxCGBYsaSV6ub-57" value="" style="ellipse;whiteSpace=wrap;html=1;aspect=fixed;" vertex="1" parent="1">
          <mxGeometry x="235" y="350" width="10" height="10" as="geometry" />
        </mxCell>
        <mxCell id="JbYDvvjTxCGBYsaSV6ub-65" value="" style="edgeStyle=orthogonalEdgeStyle;rounded=0;orthogonalLoop=1;jettySize=auto;html=1;" edge="1" parent="1" source="JbYDvvjTxCGBYsaSV6ub-62" target="JbYDvvjTxCGBYsaSV6ub-48">
          <mxGeometry relative="1" as="geometry" />
        </mxCell>
        <mxCell id="JbYDvvjTxCGBYsaSV6ub-62" value="Constraints&lt;div&gt;not requested&lt;/div&gt;" style="shape=parallelogram;perimeter=parallelogramPerimeter;whiteSpace=wrap;html=1;fixedSize=1;flipH=0;flipV=1;" vertex="1" parent="1">
          <mxGeometry x="115" y="470" width="120" height="40" as="geometry" />
        </mxCell>
        <mxCell id="JbYDvvjTxCGBYsaSV6ub-64" value="" style="edgeStyle=orthogonalEdgeStyle;rounded=0;orthogonalLoop=1;jettySize=auto;html=1;" edge="1" parent="1" source="JbYDvvjTxCGBYsaSV6ub-63" target="JbYDvvjTxCGBYsaSV6ub-50">
          <mxGeometry relative="1" as="geometry" />
        </mxCell>
        <mxCell id="JbYDvvjTxCGBYsaSV6ub-63" value="Constraints&lt;div&gt;not transmitted&lt;/div&gt;" style="shape=parallelogram;perimeter=parallelogramPerimeter;whiteSpace=wrap;html=1;fixedSize=1;flipH=0;flipV=1;" vertex="1" parent="1">
          <mxGeometry x="230" y="516" width="120" height="40" as="geometry" />
        </mxCell>
        <mxCell id="JbYDvvjTxCGBYsaSV6ub-66" value="" style="endArrow=none;html=1;rounded=0;strokeWidth=2;" edge="1" parent="1">
          <mxGeometry width="50" height="50" relative="1" as="geometry">
            <mxPoint x="256" y="452" as="sourcePoint" />
            <mxPoint x="276" y="452" as="targetPoint" />
          </mxGeometry>
        </mxCell>
        <mxCell id="JbYDvvjTxCGBYsaSV6ub-67" value="" style="endArrow=none;html=1;rounded=0;strokeWidth=2;" edge="1" parent="1">
          <mxGeometry width="50" height="50" relative="1" as="geometry">
            <mxPoint x="165" y="449" as="sourcePoint" />
            <mxPoint x="185" y="449" as="targetPoint" />
          </mxGeometry>
        </mxCell>
        <mxCell id="JbYDvvjTxCGBYsaSV6ub-69" style="edgeStyle=orthogonalEdgeStyle;rounded=0;orthogonalLoop=1;jettySize=auto;html=1;entryX=0.295;entryY=0.015;entryDx=0;entryDy=0;entryPerimeter=0;" edge="1" parent="1" source="JbYDvvjTxCGBYsaSV6ub-68" target="JbYDvvjTxCGBYsaSV6ub-63">
          <mxGeometry relative="1" as="geometry">
            <mxPoint x="290" y="560" as="targetPoint" />
          </mxGeometry>
        </mxCell>
        <mxCell id="JbYDvvjTxCGBYsaSV6ub-68" value="Participant not&lt;div&gt;checking E-mail&lt;/div&gt;" style="shape=parallelogram;perimeter=parallelogramPerimeter;whiteSpace=wrap;html=1;fixedSize=1;flipH=0;flipV=1;" vertex="1" parent="1">
          <mxGeometry x="206" y="600" width="120" height="40" as="geometry" />
        </mxCell>
        <mxCell id="JbYDvvjTxCGBYsaSV6ub-70" value="" style="ellipse;whiteSpace=wrap;html=1;aspect=fixed;" vertex="1" parent="1">
          <mxGeometry x="261" y="574" width="10" height="10" as="geometry" />
        </mxCell>
        <mxCell id="JbYDvvjTxCGBYsaSV6ub-72" value="Participant not&lt;div&gt;checking E-mail&lt;/div&gt;" style="shape=parallelogram;perimeter=parallelogramPerimeter;whiteSpace=wrap;html=1;fixedSize=1;flipH=0;flipV=1;" vertex="1" parent="1">
          <mxGeometry x="326" y="600" width="120" height="40" as="geometry" />
        </mxCell>
        <mxCell id="JbYDvvjTxCGBYsaSV6ub-73" style="edgeStyle=orthogonalEdgeStyle;rounded=0;orthogonalLoop=1;jettySize=auto;html=1;entryX=0.578;entryY=-0.019;entryDx=0;entryDy=0;entryPerimeter=0;" edge="1" parent="1" source="JbYDvvjTxCGBYsaSV6ub-72" target="JbYDvvjTxCGBYsaSV6ub-63">
          <mxGeometry relative="1" as="geometry" />
        </mxCell>
        <mxCell id="JbYDvvjTxCGBYsaSV6ub-74" value="" style="ellipse;whiteSpace=wrap;html=1;aspect=fixed;" vertex="1" parent="1">
          <mxGeometry x="325" y="573" width="10" height="10" as="geometry" />
        </mxCell>
      </root>
    </mxGraphModel>
  </diagram>
</mxfile>
